<?xml version="1.0" standalone="no"?>
<!DOCTYPE svg PUBLIC "-//W3C//DTD SVG 20010904//EN"
 "http://www.w3.org/TR/2001/REC-SVG-20010904/DTD/svg10.dtd">
<svg version="1.0" xmlns="http://www.w3.org/2000/svg"
 width="218.000000pt" height="218.000000pt" viewBox="0 0 218.000000 218.000000"
 preserveAspectRatio="xMidYMid meet">
<metadata>
Created by potrace 1.14, written by Peter Selinger 2001-2017
</metadata>
<g transform="translate(0.000000,218.000000) scale(0.100000,-0.100000)"
fill="#000000" stroke="none">
<path d="M1893 2043 c-50 -17 -103 -64 -103 -90 1 -22 21 -50 40 -54 32 -7 68
11 72 35 5 25 -7 55 -26 68 -16 10 40 28 89 28 80 0 133 -33 166 -105 22 -48
24 -104 5 -150 -18 -41 -85 -108 -127 -125 -29 -12 -31 -11 -67 31 -128 149
-282 250 -464 303 -146 42 -303 49 -461 21 -109 -20 -287 -102 -385 -177 -221
-171 -367 -451 -371 -715 -1 -40 -4 -44 -60 -82 -123 -84 -195 -197 -193 -306
1 -76 21 -125 73 -175 82 -79 203 -70 269 21 l27 39 39 -63 c52 -85 193 -223
287 -281 292 -181 672 -194 962 -31 463 259 630 816 384 1284 -27 52 -48 95
-47 96 128 82 168 136 169 229 1 88 -47 162 -128 197 -52 22 -92 23 -150 2z
m-497 -88 c94 -21 93 -21 149 -43 65 -26 167 -84 219 -125 48 -38 166 -157
166 -169 0 -4 -10 -10 -23 -13 -18 -5 -36 7 -92 62 -100 99 -165 142 -277 188
-109 44 -178 58 -308 60 -141 3 -254 -19 -374 -74 -252 -114 -450 -378 -481
-641 -9 -76 -14 -86 -41 -99 l-27 -12 6 79 c26 331 279 648 606 759 148 50
330 61 477 28z m479 -5 c0 -18 -6 -26 -23 -28 -24 -4 -38 18 -28 44 3 9 15 14
28 12 17 -2 23 -10 23 -28z m-516 -65 c165 -33 317 -114 440 -235 l63 -63
-101 -37 c-164 -61 -166 -61 -516 -60 l-323 0 -12 -87 c-14 -98 -19 -109 -59
-118 -47 -10 -291 -91 -376 -124 -44 -17 -81 -31 -83 -31 -6 0 9 98 25 155 84
310 339 543 658 600 65 11 228 12 284 0z m627 -347 c117 -212 155 -436 109
-653 -55 -267 -236 -499 -480 -619 -301 -148 -631 -128 -905 55 -214 143 -356
369 -394 626 -15 103 -13 117 20 132 21 9 24 8 25 -12 0 -22 2 -41 14 -131 3
-27 17 -81 30 -121 103 -315 362 -535 690 -584 60 -9 197 -7 269 4 54 8 176
50 239 81 205 105 373 313 432 539 57 217 22 459 -95 655 -33 56 -36 66 -22
72 32 13 39 8 68 -44z m-74 -30 c43 -67 63 -109 89 -193 26 -84 30 -110 34
-220 20 -536 -485 -950 -1008 -826 -359 85 -624 402 -636 759 l-2 70 48 22
c90 41 398 138 657 209 143 39 261 70 262 68 2 -2 -22 -40 -54 -84 -50 -72
-213 -310 -384 -561 -32 -47 -56 -88 -53 -92 6 -9 675 -11 675 -2 1 11 19 144
25 180 10 55 -19 38 -53 -31 -40 -81 -70 -108 -129 -118 -56 -9 -363 -12 -363
-3 0 3 118 178 261 388 l262 383 66 17 c36 10 107 33 156 51 50 19 95 34 102
34 6 1 26 -23 45 -51z m-523 -63 c-13 -13 -449 -138 -456 -131 -9 8 31 80 62
110 40 40 64 43 284 38 106 -3 122 -5 110 -17z m-1125 -477 c7 -72 42 -203 74
-280 20 -46 20 -46 1 -85 -35 -70 -130 -103 -198 -69 -39 21 -87 77 -101 122
-26 79 9 197 81 275 30 32 131 111 136 106 1 -1 4 -32 7 -69z"/>
</g>
</svg>
